<?xml version="1.0" encoding="UTF-8"?>
<svg xmlns="http://www.w3.org/2000/svg" width="81.999" height="82" viewBox="0 0 81.999 82">
  <path d="M58.033,358.4H52.567a1.366,1.366,0,0,0-1.367,1.367v8.2a1.366,1.366,0,0,0,1.367,1.367h5.467a1.366,1.366,0,0,0,1.367-1.367v-8.2A1.366,1.366,0,0,0,58.033,358.4Zm-1.367,8.2H53.933v-5.467h2.733V366.6Z" transform="translate(-43 -301)" fill="#d54a1e"></path>
  <path d="M144.733,265.567V260.1a4.1,4.1,0,0,0-8.2,0v5.467a1.366,1.366,0,0,0,1.367,1.367h5.467A1.366,1.366,0,0,0,144.733,265.567ZM142,264.2h-2.733v-4.1a1.367,1.367,0,0,1,2.733,0v4.1Z" transform="translate(-114.667 -215)" fill="#d54a1e"></path>
  <path d="M196.633,358.4h-24.6a1.367,1.367,0,1,0,0,2.733H173.4v12.3a1.367,1.367,0,1,0,2.733,0v-12.3h6.833V366.6a1.367,1.367,0,1,0,0,2.733v4.1a1.367,1.367,0,1,0,2.733,0v-4.1a1.367,1.367,0,1,0,0-2.733v-5.467h6.833v12.3a1.367,1.367,0,1,0,2.733,0v-12.3h1.367a1.367,1.367,0,0,0,0-2.733Z" transform="translate(-143.334 -301)" fill="#d54a1e"></path>
  <path d="M154.967,30.066a1.366,1.366,0,0,0,1.367-1.367c0-5.837,3.859-10.359,9.606-11.806A17.947,17.947,0,0,0,161.8,28.7a1.367,1.367,0,1,0,2.733,0,14.942,14.942,0,0,1,5.461-11.987A15.029,15.029,0,0,1,175.466,28.7a1.367,1.367,0,0,0,2.733,0,17.947,17.947,0,0,0-4.14-11.806c5.747,1.447,9.606,5.97,9.606,11.806a1.367,1.367,0,0,0,2.733,0c0-8.145-6.374-14.376-15.033-14.975V2.733h8.2V5.467h-4.1a1.367,1.367,0,1,0,0,2.733h5.467A1.366,1.366,0,0,0,182.3,6.833V1.367A1.366,1.366,0,0,0,180.933,0H170a1.366,1.366,0,0,0-1.367,1.367V13.725c-8.659.6-15.033,6.829-15.033,14.975A1.366,1.366,0,0,0,154.967,30.066Z" transform="translate(-129)" fill="#d54a1e"></path>
  <path d="M196.633,477.867h-24.6a1.366,1.366,0,0,0-1.367,1.367v2.733a1.367,1.367,0,1,0,2.733,0V480.6h21.866v1.367a1.367,1.367,0,1,0,2.733,0v-2.733A1.366,1.366,0,0,0,196.633,477.867Z" transform="translate(-143.334 -401.334)" fill="#d54a1e"></path>
  <path d="M331.1,266.933a1.366,1.366,0,0,0,1.367-1.367V260.1a4.1,4.1,0,0,0-8.2,0v5.467a1.366,1.366,0,0,0,1.367,1.367H331.1ZM327,260.1a1.367,1.367,0,0,1,2.733,0v4.1H327v-4.1Z" transform="translate(-272.333 -215)" fill="#d54a1e"></path>
  <path d="M410.966,266.933h5.467a1.366,1.366,0,0,0,1.367-1.367V260.1a4.1,4.1,0,0,0-8.2,0v5.467A1.366,1.366,0,0,0,410.966,266.933Zm1.367-6.833a1.367,1.367,0,0,1,2.733,0v4.1h-2.733v-4.1Z" transform="translate(-344 -215)" fill="#d54a1e"></path>
  <path d="M80.633,187.733a1.366,1.366,0,0,0-1.367,1.367v1.367H2.733V189.1A1.367,1.367,0,1,0,0,189.1v49.2a1.366,1.366,0,0,0,1.367,1.367H23.233A1.366,1.366,0,0,0,24.6,238.3v-5.467a2.737,2.737,0,0,0-2.733-2.733,2.709,2.709,0,0,0-1.367.368,2.84,2.84,0,0,0-2.733,0,2.84,2.84,0,0,0-2.733,0,2.84,2.84,0,0,0-2.733,0,2.84,2.84,0,0,0-2.733,0,2.84,2.84,0,0,0-2.733,0,2.84,2.84,0,0,0-2.733,0,2.711,2.711,0,0,0-1.367-.368V193.2H79.266v36.9a2.709,2.709,0,0,0-1.367.368,2.84,2.84,0,0,0-2.733,0,2.84,2.84,0,0,0-2.733,0,2.84,2.84,0,0,0-2.733,0,2.84,2.84,0,0,0-2.733,0,2.84,2.84,0,0,0-2.733,0,2.84,2.84,0,0,0-2.733,0,2.731,2.731,0,0,0-4.1,2.366V238.3a1.366,1.366,0,0,0,1.367,1.367H80.632A1.366,1.366,0,0,0,82,238.3V189.1A1.365,1.365,0,0,0,80.633,187.733ZM4.1,234.2a1.366,1.366,0,0,0,1.367-1.367,1.367,1.367,0,1,0,2.733,0,1.367,1.367,0,1,0,2.733,0,1.367,1.367,0,1,0,2.733,0,1.367,1.367,0,1,0,2.733,0,1.367,1.367,0,1,0,2.733,0,1.367,1.367,0,1,0,2.733,0v4.1H2.733v-4.1A1.366,1.366,0,0,0,4.1,234.2Zm75.166,2.733H60.133v-4.1a1.367,1.367,0,1,0,2.733,0,1.367,1.367,0,1,0,2.733,0,1.367,1.367,0,1,0,2.733,0,1.367,1.367,0,1,0,2.733,0,1.367,1.367,0,1,0,2.733,0,1.367,1.367,0,1,0,2.733,0,1.367,1.367,0,1,0,2.733,0v4.1Z" transform="translate(0 -157.667)" fill="#d54a1e"></path>
  <path d="M409.6,367.967a1.366,1.366,0,0,0,1.367,1.367h5.467a1.366,1.366,0,0,0,1.367-1.367v-8.2a1.366,1.366,0,0,0-1.367-1.367h-5.467a1.366,1.366,0,0,0-1.367,1.367Zm2.733-6.833h2.733V366.6h-2.733Z" transform="translate(-344 -301)" fill="#d54a1e"></path>
  <path d="M237.233,266.933a1.366,1.366,0,0,0,1.367-1.367V260.1a4.1,4.1,0,0,0-8.2,0v5.467a1.366,1.366,0,0,0,1.367,1.367h5.467Zm-4.1-6.833a1.367,1.367,0,0,1,2.733,0v4.1h-2.733v-4.1Z" transform="translate(-193.5 -215)" fill="#d54a1e"></path>
  <path d="M59.4,260.1a4.1,4.1,0,0,0-8.2,0v5.467a1.366,1.366,0,0,0,1.367,1.367h5.467a1.366,1.366,0,0,0,1.367-1.367V260.1Zm-2.733,4.1H53.933v-4.1a1.367,1.367,0,0,1,2.733,0Z" transform="translate(-43 -215)" fill="#d54a1e"></path>
</svg>
