<?xml version="1.0" encoding="UTF-8"?>
<svg xmlns="http://www.w3.org/2000/svg" width="88.001" height="88.002" viewBox="0 0 88.001 88.002">
  <g transform="translate(-0.002)">
    <g transform="translate(0.002)">
      <g transform="translate(0)">
        <path d="M86.6,27.149H79.483V23.4H86.6a1.4,1.4,0,0,0,1.3-1.941L79.377.867a1.4,1.4,0,0,0-2.6,0l-8.519,20.6a1.4,1.4,0,0,0,1.3,1.941h7.115v3.745H68.57l-4.833-8.458a12.075,12.075,0,0,0-9.623-5.585H46.332a1.4,1.4,0,1,0,0,2.808h7.781a9.292,9.292,0,0,1,7.185,4.17l4.037,7.065H48.562L40.519,13.074A12.075,12.075,0,0,0,30.9,7.49H1.406a1.4,1.4,0,1,0,0,2.808H30.9a9.292,9.292,0,0,1,7.185,4.17l7.247,12.682H12.64a1.4,1.4,0,1,0,0,2.808H86.6a1.4,1.4,0,0,0,0-2.808ZM71.661,20.6,78.079,5.078,84.5,20.6Z" transform="translate(-0.002)" fill="#d54a1e"></path>
      </g>
    </g>
    <g transform="translate(0.002 27.149)">
      <g transform="translate(0)">
        <path d="M7.023,157.957H1.406a1.4,1.4,0,1,0,0,2.808H7.023a1.4,1.4,0,1,0,0-2.808Z" transform="translate(-0.002 -157.957)" fill="#d54a1e"></path>
      </g>
    </g>
    <g transform="translate(0.002 32.766)">
      <g transform="translate(0)">
        <path d="M71.62,190.637H1.406a1.4,1.4,0,1,0,0,2.808H71.62a1.4,1.4,0,0,0,0-2.808Z" transform="translate(-0.002 -190.637)" fill="#d54a1e"></path>
      </g>
    </g>
    <g transform="translate(37.449 38.383)">
      <path d="M267.022,223.318H219.277a1.4,1.4,0,0,0,0,2.808h47.745a1.4,1.4,0,0,0,0-2.808Z" transform="translate(-217.873 -223.318)" fill="#d54a1e"></path>
    </g>
    <g transform="translate(14.981 38.383)">
      <path d="M105.405,223.318H88.554a1.4,1.4,0,0,0,0,2.808h16.851a1.4,1.4,0,1,0,0-2.808Z" transform="translate(-87.15 -223.318)" fill="#d54a1e"></path>
    </g>
    <g transform="translate(59.997 49.618)">
      <path d="M375.661,288.68h-25.2a1.4,1.4,0,1,0,0,2.808h25.2a1.4,1.4,0,1,0,0-2.808Z" transform="translate(-349.06 -288.68)" fill="#d54a1e"></path>
    </g>
    <g transform="translate(0.002 60.852)">
      <g transform="translate(0)">
        <path d="M23.2,354.041H1.406a1.4,1.4,0,1,0,0,2.808H23.2a1.4,1.4,0,1,0,0-2.808Z" transform="translate(-0.002 -354.041)" fill="#d54a1e"></path>
      </g>
    </g>
    <g transform="translate(11.236 66.469)">
      <path d="M75.545,386.722H66.767a1.4,1.4,0,1,0,0,2.808h8.778a1.4,1.4,0,1,0,0-2.808Z" transform="translate(-65.363 -386.722)" fill="#d54a1e"></path>
    </g>
    <g transform="translate(20.13 49.618)">
      <path d="M164.789,325.248l-10.945-35.57a1.369,1.369,0,0,0-.079-.2l-.014-.029a1.41,1.41,0,0,0-.1-.169l-.021-.028a1.412,1.412,0,0,0-.12-.142l-.011-.013a1.427,1.427,0,0,0-.147-.128l-.031-.023a1.388,1.388,0,0,0-.166-.1l-.02-.009a1.363,1.363,0,0,0-.174-.074l-.023-.008a1.4,1.4,0,0,0-.193-.048l-.039-.006a1.389,1.389,0,0,0-.205-.017H129.457a1.389,1.389,0,0,0-.205.017l-.039.006a1.413,1.413,0,0,0-.193.048l-.023.008a1.419,1.419,0,0,0-.174.074l-.02.009a1.409,1.409,0,0,0-.166.1l-.031.023a1.387,1.387,0,0,0-.147.128l-.011.013a1.371,1.371,0,0,0-.12.142l-.021.028a1.39,1.39,0,0,0-.1.169l-.014.029a1.387,1.387,0,0,0-.079.2l-10.945,35.57a1.4,1.4,0,1,0,2.684.826l1.884-6.124h38.484l1.884,6.124a1.4,1.4,0,0,0,2.684-.826Zm-34.3-33.758h20.97l1.325,4.306h-23.62Zm-2.189,7.115h25.349l1.325,4.306h-28Zm-5.7,18.536,1.325-4.306H138.17a1.4,1.4,0,0,0,0-2.809H124.79l1.325-4.306h29.727l1.325,4.306h-13.38a1.4,1.4,0,0,0,0,2.809h14.244l1.325,4.306Z" transform="translate(-117.106 -288.682)" fill="#d54a1e"></path>
    </g>
  </g>
</svg>
