<?xml version="1.0" encoding="UTF-8"?>
<svg xmlns="http://www.w3.org/2000/svg" width="93.468" height="77.887" viewBox="0 0 93.468 77.887">
  <g transform="translate(-1 -43.677)">
    <g transform="translate(1 43.677)">
      <path d="M92.909,118.449H82V99.756h10.9A1.558,1.558,0,0,0,94.3,97.5L89.2,87.294h.595a1.558,1.558,0,0,0,1.393-2.254l-5.1-10.207h.595a1.558,1.558,0,0,0,1.393-2.254l-5.1-10.207h.595a1.558,1.558,0,0,0,1.393-2.254L77.166,44.538a1.558,1.558,0,0,0-2.787,0L66.591,60.116a1.558,1.558,0,0,0,1.393,2.254h.595l-5.1,10.207a1.558,1.558,0,0,0,1.393,2.254h.595l-5.1,10.207a1.558,1.558,0,0,0,1.393,2.254h.595L57.244,97.5a1.558,1.558,0,0,0,1.393,2.254h10.9v18.693H53.964v-4.673h3.116a1.558,1.558,0,0,0,1.558-1.558V108.38a5.508,5.508,0,0,0-4.673-5.445V99.756a1.558,1.558,0,1,0-3.115,0v3.116H44.618V99.756a1.558,1.558,0,1,0-3.115,0v3.178a5.508,5.508,0,0,0-4.673,5.445v3.838a1.558,1.558,0,0,0,1.558,1.558H41.5v4.673H25.925V99.756h10.9A1.558,1.558,0,0,0,38.222,97.5l-5.1-10.207h.595a1.558,1.558,0,0,0,1.393-2.254L30,74.832H30.6a1.558,1.558,0,0,0,1.346-2.343L21.039,53.8a1.558,1.558,0,0,0-2.691,0L7.444,72.489a1.558,1.558,0,0,0,1.346,2.343h.595L4.28,85.04a1.558,1.558,0,0,0,1.393,2.254h.595L1.167,97.5A1.558,1.558,0,0,0,2.56,99.756h10.9v18.693H2.56a1.558,1.558,0,1,0,0,3.115H92.908a1.558,1.558,0,0,0,0-3.115ZM75.773,48.718l5.268,10.536H70.505ZM72.063,62.37h7.421l4.673,9.346H67.39ZM68.947,74.832H82.6l4.673,9.346h-23ZM65.832,87.294H85.715l4.673,9.346H61.158ZM78.889,99.756v18.692H72.658V99.756ZM19.695,57.673l8.192,14.044H11.5ZM12.869,74.832H26.521l4.673,9.346H8.2ZM9.754,87.294H29.636l4.673,9.346H5.08ZM22.81,99.756v18.692H16.579V99.756Zm17.135,8.624a2.392,2.392,0,0,1,2.393-2.393H53.13a2.392,2.392,0,0,1,2.393,2.393v2.281H39.945v-2.281Zm4.673,5.4H50.85v4.673H44.619Z" transform="translate(-1 -43.677)" fill="#d54a1e"></path>
    </g>
  </g>
</svg>
