<?xml version="1.0" encoding="UTF-8"?>
<svg xmlns="http://www.w3.org/2000/svg" width="89.521" height="65.115" viewBox="0 0 89.521 65.115">
  <g transform="translate(-0.221 -3.998)">
    <path d="M.221,50.625a57.243,57.243,0,0,0,6.8,7.22c-.008-.217-.038-.422-.038-.638A19.11,19.11,0,0,1,19.267,39.431a3.8,3.8,0,0,0,.665-6.779,11.375,11.375,0,1,1,13.733-18,22.614,22.614,0,0,1,7.684-2.717,18.977,18.977,0,1,0-30.07,23.123A26.866,26.866,0,0,0,.221,50.625Zm89.521,0a26.866,26.866,0,0,0-11.058-15.58,18.977,18.977,0,1,0-30.07-23.127A22.606,22.606,0,0,1,56.3,14.635,11.374,11.374,0,1,1,70.031,32.648a3.8,3.8,0,0,0,.665,6.779,19.11,19.11,0,0,1,12.286,17.78c0,.217-.03.422-.038.635A57.247,57.247,0,0,0,89.742,50.625Z" transform="translate(0 0)" fill="#d54a1e"></path>
    <path d="M57.9,57.473A26.794,26.794,0,0,0,46.174,38.039a19,19,0,1,0-29.4,0A26.794,26.794,0,0,0,5.046,57.473,56.705,56.705,0,0,0,12.524,60.7c-.008-.171-.053-.331-.053-.505A19.118,19.118,0,0,1,24.757,42.417a3.8,3.8,0,0,0,.665-6.783,11.263,11.263,0,0,1-5.35-9.641,11.4,11.4,0,0,1,22.8,0,11.263,11.263,0,0,1-5.35,9.641,3.8,3.8,0,0,0,.665,6.783A19.118,19.118,0,0,1,50.472,60.194c0,.175-.046.334-.049.505A56.7,56.7,0,0,0,57.9,57.473Z" transform="translate(13.51 8.414)" fill="#d54a1e"></path>
  </g>
</svg>
